<?xml version="1.0" encoding="utf-8"?>
<!-- Generator: Adobe Illustrator 21.0.0, SVG Export Plug-In . SVG Version: 6.00 Build 0)  -->
<svg version="1.1" id="Layer_1" xmlns="http://www.w3.org/2000/svg" xmlns:xlink="http://www.w3.org/1999/xlink" x="0px" y="0px"
	 viewBox="0 0 365 904" style="enable-background:new 0 0 365 904;" xml:space="preserve">
<style type="text/css">
	.st0{fill:#2B3137;stroke-miterlimit:10;}
	.st1{stroke:#363636;stroke-miterlimit:10;}
	.st2{fill:url(#SVGID_1_);}
	.st3{fill:url(#SVGID_2_);}
</style>
<g>
	<path class="st0" d="M61,0c104.3,0,208.6,0,313,0c0,314.6,0,629.2,0,943.9c-141.2,0-282.4,0-423.8,0c0-314.6,0-629.2,0-943.9
		C-15,0,20,0,55,0c-7.6,4.8-15.1,9.6-22.6,14.5c-3.4,2.3-8,4-9.9,7.2c-6.6,11.7-9.1,24.6-5,37.5c4.5,14,3.8,27.5,0.2,41.3
		c-0.9,3.6-0.9,7.5-1.1,11.3c-0.6,8.9-0.8,17.9-1.9,26.7c-1.3,10.4-2.1,20.7-0.5,31.3c2.4,15.2,7.5,29.2,14.7,42.7
		c4.3,8.1,9.8,15,16.5,21c3,2.7,6.3,3.1,10.7,0.4c-2.7-1.3-4.7-3-6.7-3c-4.4,0-6.8-2.4-8.8-5.6c-2.6-4.1-4.8-8.3-7.4-12.4
		c-9.2-14.8-14.1-31-16.4-48.2c-1.3-10.1,2.5-19.1,3.7-26.9c2.9-1.7,5.3-2.5,6.7-4.1c3-3.5,6.9-4.1,8.2-1.6c-1.6,1.9-3,3.5-4.3,5.1
		c2.5,0.5,4.2-0.3,5.7,0c4.9,0.9,7.5-1.9,8.5-5.8c1.5-6.2,2.6-12.6,2.8-18.9c0.1-2.4-2.5-5.5-4.8-7.1c-3.2-2.3-7-4-10.8-5.1
		c-4-1.2-5.8-3.4-5.9-7c1.2-0.6,3-1,3-1.4c0-5.8,1.8-10.5,6.7-14c1-0.7,0.7-3.3,1.8-4.1c4.7-3.6,9.7-6.9,14.6-10.2
		c1.1-0.7,2.3-1.4,3.6-1.6c6.9-1,13.8-1.9,20.7-2.8c0.5-0.1,1,0,1.5,0.1c6.6,1.1,13.2,2.6,19.8,3.4c7.6,0.8,12.5,5.6,17.4,10.6
		c5.4,5.5,5.1,13,7.1,19.7c1.1,3.9,1.8,7.9,2.7,11.9c3.8-0.7,4.5,1.9,4.6,5.3c0.1,1.2,0.7,2.5,1.3,3.7c2.1,4.1,5.8,8,6.2,12.2
		c1.1,13,0.9,26.1,1.4,39.2c0,1,1.1,2.1,1.7,3.1c0.9-0.8,2.2-1.5,2.6-2.5c1.7-4.9,2.7-10,4.6-14.7c1.8-4.3,4.3-8.4,6.8-12.4
		c0.4-0.6,2.6-0.2,3.9-0.3c-0.1,1.1,0,2.2-0.3,3.2c-0.8,3-1.9,6-2.7,9.1c-1,4.1-1.9,8.3-2.7,12.4c-0.3,1.4,0,2.9,0,6
		c4.4-4.2,7.5-8.3,12.2-3.5c3-5,3.9-9.5,1.1-14.2c-3-5-1.9-8.1,4.4-9.9c1.7,4,3.4,8.1,5.2,12.1c3.5-8.4,1.9-15.5-5.5-21.3
		c5.8-3.5,6,3.1,9.3,3.9c0.8-4.1,1.7-8,2.3-11.9c2.1-15.6,4.5-31.3,5.9-47c0.4-4.9-2.6-10-2.7-15c-0.1-8.5-6.9-13.4-9.5-20.4
		c-0.2-0.5-1.2-0.7-1.6-1.2c-1.4-1.8-3-3.6-4.1-5.7c-0.9-1.9-12-14.4-14-15c-0.2-0.1-0.3-0.1-0.5-0.1c-5.4,0.4-8.8-2.3-11.1-7
		c-0.2-0.5-0.9-0.8-1.6-1.3c0.3,2.4,0.5,4.4,0.8,7c-1.4-0.5-2.2-0.6-2.5-1c-3.6-5.8-9.2-8.6-15-11.7c-4.2-2.3-6.8-3.1-9,1.2
		c-4-1.5-7.6-3.8-11.1-3.8C94.8,3.2,83.6,3.8,72.4,4.1c-2,0.1-4,0.3-5.9,0.5C62.9,5,60.9,3.7,61,0z M102.9,215.3
		c-0.1,0-1.7-0.7-2.7-0.2c-8.8,4.7-17.5,9.7-26.3,14.4c-2.7,1.4-5.8,2-8.7,3.2c-1.6,0.6-4,1.3-4.2,2.4c-0.3,1.3,1.3,3,2.1,4.5
		c2,3.8,5.3,7.4,5.5,11.3c0.3,5.6-1.2,11.5-2.7,17c-2.7,10.1-6,20-8.5,28.3c-3.2,1.2-5.6,1.4-6.7,2.7c-2.2,2.6-4.4,5.6-5.2,8.8
		c-5,19.2-9.1,38.6-14.5,57.6c-6.2,21.6-4.7,43.9-7.9,65.8c-2.4,16.1-4.5,32.3-6.6,48.4c-0.9,7.4-1.8,14.8-2.1,22.3
		c-0.5,16.1-0.6,32.2-0.8,48.3c-0.2,14-0.7,27.9-0.6,41.9c0,12.1,2,24.4,0.6,36.4c-2,16.4-2.8,32.8-2.5,49.3
		c0.6,25.4,2.3,50.6,12.9,74.2c1.3,2.9,3.2,5.8,5.5,8c4.1,3.8,6.8,7.8,7.8,13.5c1.9,10.5,4.3,20.9,7,31.2c1.8,6.9,4.4,13.6,6.5,20.4
		c4.2,13.8,8.2,27.8,12.7,41.5c0.7,2,3.1,3.9,5.1,5.1c7.3,4.3,14.7,8.5,22.2,12.4c8.8,4.6,17.4,10.7,27.9,9.8
		c12.1-1.1,24.1-2.7,36-5.1c6.4-1.3,12.8-4,18.4-7.4c9.9-6.1,19.3-13.1,28.7-20c1.9-1.4,3.8-4.2,3.8-6.4c-0.1-9.5-0.5-19-1.6-28.4
		c-0.5-4.9,0.9-7.3,5.2-9.2c10.4-4.7,17.9-12.6,20.6-23.7c3.9-16.2,10.1-32,9.5-49.1c-0.1-2.6,0.6-5.3,1.5-7.8
		c5.4-15.8,4-31.8,2.3-47.9c-1.7-15.8-5.1-31.6-3-47.7c0.7-4.9,0.5-10,0.3-14.9c-0.2-5,1.4-8.4,5.7-11.2c13.3-8.5,26.4-17.3,39.6-26
		c5.4-3.5,10.8-6.8,16.6-10.4c1,2.2,1.6,3.7,2.5,5.6c5.3-3.8,10.3-7.2,15.2-11c9.9-7.6,21.1-13.5,28.4-24.1
		c2.8-4.1,6.6-7.9,5.4-13.4c-3.1-14.2-6-28.4-9.7-42.4c-2.7-10.2-5.5-20.6-14.5-27.8c-2.3-1.9-3.3-5.3-5-8
		c-2.4-3.7-4.8-7.4-7.1-10.9c-0.1-1.2,0.2-3.2-0.5-3.9c-3.8-3.4-5.7-9.3-12.5-9.2c-2.2,0-4.4-2.5-7.3-4.3c2.3-1.2,4.1-1.7,4.9-2.8
		c1.6-2.1,4.2-5.8,3.5-6.8c-3.2-4.4-6.8-9.4-11.5-11.7c-4.1-2-5.3-3.9-6-7.8c-0.4-2.6-1.5-6.4-3.3-7.3c-3.3-1.6-4-4.1-5-6.8
		c-2.4-6.5-6.6-12.4-5.5-20.1c0.7-5.3,0.6-11-0.2-16.3c-3.1-20.6-9.1-39.9-26.1-53.9c-3.4-2.8-6.8-6.4-11.7-2.3
		c-0.4,0.3-1.4,0.4-1.9,0.1c-5.1-2.7-10.6-4.9-15.1-8.3c-6.2-4.8-6.9-5.2-14-0.3c2.1,0.6,3.8,0.9,5.5,1.6c2.4,1.1,5,2,6.9,3.7
		c7.5,6.4,14.7,13,22.1,19.5c2.3,2,4.7,3.9,7,5.9c-0.3,0.4-0.6,0.9-1,1.3c-1.7-0.6-3.5-0.9-5-1.7c-5.4-3.2-11.3-5.9-15.9-10
		c-4.8-4.3-12.7-1-16-7.6c-0.2-0.5-1.5-0.4-2.2-0.6c-0.7,1.5-1.3,2.7-2.3,4.7c-2.7-4.2-4.9-7.7-7.3-11.1c-0.6-0.8-2.4-1.5-3.1-1.1
		c-4.8,2.2-9.4,4.8-14.3,6.9c-2.6,1.1-5.5,1.3-8.3,1.9c3.7-4.1,2.3-8.1,1.6-11.6c-0.6-3.1-1.5-5.5,3.7-5.7c-2.8-1.4-5.6-3-7.6-2.4
		c-2.1,0.7-3.5,3.5-6.1,6.3c0-2.9,0.5-4.9-0.1-5.2c-3.9-2.2-0.5-3.8,0.1-5.9c1.4-5.1,0.2-11.1,5.5-14.7c0.1-0.1,0-0.3,0-0.5
		c-0.9-7.1,3.2-11.9,7.8-16.3c8-7.6,7.8-23.6-0.4-30.6c-0.6-0.5-1.5-1.2-2.2-1.1c-6.5,0.7-6.4-5.8-9.5-8.7c-0.4-0.4,0.2-2.1,0.6-3.1
		c3.3-8.8,6.7-17.5,9.9-26.3c0.5-1.5,0.1-3.4,0.1-5.1c-0.5-0.3-1.1-0.5-1.6-0.8c-4.9,5.6-9.8,11.2-14.7,16.9c0.5,1.5,1,3.1,1.6,4.8
		c-1,0-1.7,0-1,0c-1.2,3.8-2.1,7.2-3.4,10.5c-1.3,3.2-3.9,5.3-7.1,3.3c-3.3-2.1-1.2-4.9,0.4-7.3c0.3-0.4,0.6-0.8,0.8-1.2
		c1.4-3,3.3-5.9,3.9-9c0.4-2-1.2-4.3-2.1-6.9c-1.4,1.2-1.8,1.4-1.9,1.6c-2.8,5.6,1.3,14.1-7.1,17.3c0,1.4,0,2.7,0,5.2
		c-1.9-2.3-3-3.6-3.3-3.9c-4.2,0.3-7.5,0.4-10.7,0.9c-2.7,0.4-5.6,0.7-7.9,1.9c-3.1,1.7-5.8,4.3-9.1,6.9c0,0.1-0.1,1.4-0.8,2
		C108.7,211.4,106.3,212.9,102.9,215.3z M113.6,115.4c-4.5-6.9-10.3-12-17.4-14.2c-8.1-2.6-16.8-4.2-25.3-0.7
		c-3.2,1.3-6.6,2.2-9.4,4.1c-1.7,1.2-3.3,4-3.1,5.9c0.1,1.3,3.3,3.5,5,3.4c5.6-0.4,11.3-1.4,16.8-2.7c7.4-1.7,14.2,0.6,20.9,3
		C105.2,115.7,109,117.5,113.6,115.4z M107.8,130.8c-4.2-8.7-17.7-15.9-25.8-14c-5.2,1.2-10.3,3.1-15.7,4.7c4,6.3-1.9,3.8-4.3,4.4
		c1,6.3,5.6,8.3,10.9,9.9c0.7-1.4,1.4-2.6,2.2-4.1c0.4,2.5,0.7,4.4,1.1,7.1c5.1-5.8,10-8.6,17.1-7C97.8,132.7,103,134.6,107.8,130.8
		z M78.2,190.3c-5.6-8.8-14.8-6.4-22.5-7.9c-4.8-0.9-9.9-0.3-14.9-0.7c-2.7-0.2-6.8,3.2-7.9,6.8c-1.2,3.8,1.6,4,4,4.8
		c1.1,0.3,2.1,0.7,2.2,0.7c1.6-2.2,2.6-5,4.1-5.4c6.6-1.6,13.6-2.4,19.6,1.6c2.8,1.9,5.1,2.4,8.2,1.5
		C73.1,191.1,75.4,190.8,78.2,190.3z M58.6,164c-2.8,0-6-3.9-6.9-3.3c-3.5,2.5,1,3.6,1.9,5c1.2,1.8,3.7,3.8,5.7,3.9
		c2,0.1,4-2.2,6.1-3.4c-0.1-0.5-0.3-0.9-0.4-1.4c1.3,0.5,2.5,1,3.1,1.2c0.4-2.2,0.8-4.2,1.1-6.1C65.9,161.3,62,163.9,58.6,164z
		 M45.4,173.3c-1-4.9,1.5-11.4-6.9-13.5c0.5,2.6,1,4.8,1.5,7.2c-1.6-0.8-3.2-1.6-4.9-2.4c-0.2,0.3-0.4,0.6-0.6,0.9
		C38.2,168.2,41.8,170.7,45.4,173.3z M175.5,274.2c0.9-2.2,1.5-3.7,2-5.1c-2.3-1.1-4.4-2-6.8-3.2C168.9,270,173,271.4,175.5,274.2z"
		/>
	<path class="st1" d="M61,0c-0.1,3.7,1.9,5,5.4,4.6c2-0.2,4-0.4,5.9-0.5C83.6,3.8,94.8,3.2,106,3.5c3.6,0.1,7.1,2.4,11.1,3.8
		c2.2-4.3,4.8-3.5,9-1.2c5.8,3.1,11.4,5.9,15,11.7c0.3,0.4,1.1,0.5,2.5,1c-0.3-2.6-0.5-4.6-0.8-7c0.7,0.6,1.4,0.8,1.6,1.3
		c2.3,4.7,5.7,7.4,11.1,7c0.2,0,0.3,0.1,0.5,0.1c2,0.6,13.1,13.1,14,15c1,2.1,2.6,3.9,4.1,5.7c0.4,0.5,1.4,0.6,1.6,1.2
		c2.6,7,9.4,11.9,9.5,20.4c0,5,3.1,10.1,2.7,15c-1.4,15.7-3.8,31.3-5.9,47c-0.5,3.9-1.5,7.7-2.3,11.9c-3.3-0.8-3.6-7.4-9.3-3.9
		c7.3,5.8,8.9,12.9,5.5,21.3c-1.7-4.1-3.5-8.1-5.2-12.1c-6.3,1.9-7.4,4.9-4.4,9.9c2.8,4.7,1.8,9.2-1.1,14.2
		c-4.7-4.8-7.9-0.7-12.2,3.5c0-3.1-0.2-4.6,0-6c0.8-4.2,1.7-8.3,2.7-12.4c0.8-3.1,1.9-6,2.7-9.1c0.3-1,0.2-2.1,0.3-3.2
		c-1.3,0.1-3.5-0.4-3.9,0.3c-2.5,4-5,8.1-6.8,12.4c-1.9,4.7-3,9.8-4.6,14.7c-0.3,1-1.7,1.7-2.6,2.5c-0.6-1-1.7-2-1.7-3.1
		c-0.4-13.1-0.3-26.2-1.4-39.2c-0.4-4.2-4.1-8.1-6.2-12.2c-0.6-1.2-1.3-2.4-1.3-3.7c-0.1-3.4-0.8-6-4.6-5.3c-0.9-4-1.5-8-2.7-11.9
		c-2-6.7-1.7-14.3-7.1-19.7c-4.9-5-9.8-9.8-17.4-10.6c-6.7-0.7-13.2-2.2-19.8-3.4c-0.5-0.1-1-0.1-1.5-0.1
		c-6.9,0.9-13.8,1.8-20.7,2.8c-1.3,0.2-2.5,0.8-3.6,1.6c-4.9,3.3-9.9,6.6-14.6,10.2c-1,0.8-0.7,3.3-1.8,4.1c-4.9,3.5-6.6,8.3-6.7,14
		c0,0.4-1.8,0.9-3,1.4c0.1,3.6,2,5.8,5.9,7c3.8,1.1,7.6,2.8,10.8,5.1c2.2,1.6,4.8,4.7,4.8,7.1c-0.2,6.3-1.3,12.7-2.8,18.9
		c-0.9,3.9-3.6,6.7-8.5,5.8c-1.5-0.3-3.2,0.5-5.7,0c1.4-1.6,2.7-3.2,4.3-5.1c-1.3-2.4-5.2-1.9-8.2,1.6c-1.4,1.6-3.8,2.4-6.7,4.1
		c-1.2,7.8-5,16.9-3.7,26.9c2.2,17.2,7.1,33.4,16.4,48.2c2.6,4.1,4.8,8.4,7.4,12.4c2,3.2,4.4,5.6,8.8,5.6c2,0,4,1.7,6.7,3
		c-4.4,2.7-7.8,2.3-10.7-0.4c-6.7-6.1-12.2-12.9-16.5-21c-7.2-13.5-12.4-27.5-14.7-42.7c-1.6-10.6-0.8-20.8,0.5-31.3
		c1.1-8.9,1.2-17.8,1.9-26.7c0.3-3.8,0.2-7.7,1.1-11.3c3.6-13.8,4.2-27.3-0.2-41.3c-4.1-12.9-1.7-25.9,5-37.5c1.8-3.2,6.4-5,9.9-7.2
		C39.9,9.6,47.4,4.8,55,0C57,0,59,0,61,0z M33.6,115.4c-0.2-0.6-0.4-1.1-0.6-1.7c-3.1,0.7-6.2,1.5-9.2,2.2c0.2,0.8,0.5,1.6,0.7,2.4
		C27.5,117.4,30.6,116.4,33.6,115.4z"/>
	<path class="st1" d="M102.9,215.3c3.4-2.4,5.8-3.9,8-5.7c0.7-0.6,0.8-1.9,0.8-2c3.3-2.5,5.9-5.2,9.1-6.9c2.3-1.3,5.2-1.6,7.9-1.9
		c3.3-0.5,6.6-0.6,10.7-0.9c0.3,0.3,1.4,1.7,3.3,3.9c0-2.5,0-3.9,0-5.2c8.4-3.2,4.3-11.7,7.1-17.3c0.1-0.3,0.5-0.4,1.9-1.6
		c0.9,2.6,2.5,5,2.1,6.9c-0.6,3.1-2.5,6-3.9,9c-0.2,0.4-0.5,0.8-0.8,1.2c-1.6,2.4-3.8,5.2-0.4,7.3c3.2,2,5.8-0.2,7.1-3.3
		c1.3-3.3,2.2-6.7,3.4-10.5c-0.7,0,0.1,0,1,0c-0.6-1.7-1.1-3.3-1.6-4.8c4.9-5.7,9.8-11.3,14.7-16.9c0.5,0.3,1.1,0.5,1.6,0.8
		c0,1.7,0.5,3.6-0.1,5.1c-3.2,8.8-6.6,17.6-9.9,26.3c-0.4,1-1,2.7-0.6,3.1c3.1,3,3.1,9.4,9.5,8.7c0.7-0.1,1.6,0.6,2.2,1.1
		c8.2,7.1,8.4,23.1,0.4,30.6c-4.7,4.4-8.7,9.2-7.8,16.3c0,0.2,0.1,0.4,0,0.5c-5.3,3.6-4.2,9.6-5.5,14.7c-0.6,2.1-3.9,3.7-0.1,5.9
		c0.5,0.3,0.1,2.4,0.1,5.2c2.6-2.8,4-5.7,6.1-6.3c2-0.6,4.8,1,7.6,2.4c-5.2,0.2-4.3,2.6-3.7,5.7c0.7,3.5,2.1,7.5-1.6,11.6
		c2.8-0.6,5.7-0.8,8.3-1.9c4.9-2.1,9.5-4.7,14.3-6.9c0.7-0.3,2.5,0.4,3.1,1.1c2.4,3.4,4.6,6.9,7.3,11.1c1-2,1.6-3.2,2.3-4.7
		c0.7,0.2,2,0.2,2.2,0.6c3.3,6.7,11.3,3.3,16,7.6c4.5,4.2,10.5,6.8,15.9,10c1.5,0.9,3.3,1.2,5,1.7c0.3-0.4,0.6-0.9,1-1.3
		c-2.3-2-4.7-3.9-7-5.9c-7.4-6.5-14.6-13.2-22.1-19.5c-1.9-1.7-4.5-2.6-6.9-3.7c-1.6-0.7-3.4-1-5.5-1.6c7.1-5,7.8-4.5,14,0.3
		c4.5,3.5,10,5.6,15.1,8.3c0.5,0.3,1.5,0.2,1.9-0.1c4.9-4.1,8.3-0.6,11.7,2.3c17,13.9,23,33.2,26.1,53.9c0.8,5.4,1,11,0.2,16.3
		c-1.1,7.7,3.1,13.6,5.5,20.1c1,2.7,1.8,5.2,5,6.8c1.9,0.9,2.9,4.7,3.3,7.3c0.6,3.9,1.9,5.9,6,7.8c4.7,2.3,8.2,7.3,11.5,11.7
		c0.7,1-2,4.7-3.5,6.8c-0.9,1.2-2.7,1.6-4.9,2.8c2.9,1.8,5.1,4.3,7.3,4.3c6.8-0.1,8.6,5.8,12.5,9.2c0.8,0.7,0.4,2.7,0.5,3.9
		c2.3,3.5,4.7,7.2,7.1,10.9c1.7,2.7,2.7,6.1,5,8c9,7.2,11.8,17.6,14.5,27.8c3.7,14,6.6,28.2,9.7,42.4c1.2,5.5-2.6,9.3-5.4,13.4
		c-7.3,10.6-18.5,16.6-28.4,24.1c-4.9,3.7-9.9,7.2-15.2,11c-0.9-1.9-1.5-3.4-2.5-5.6c-5.8,3.6-11.2,6.9-16.6,10.4
		c-13.2,8.6-26.3,17.5-39.6,26c-4.4,2.8-6,6.2-5.7,11.2c0.2,5,0.4,10-0.3,14.9c-2.1,16.1,1.3,31.9,3,47.7
		c1.7,16.1,3.1,32.1-2.3,47.9c-0.9,2.5-1.5,5.2-1.5,7.8c0.6,17.1-5.6,32.9-9.5,49.1c-2.7,11.1-10.1,19-20.6,23.7
		c-4.4,1.9-5.8,4.3-5.2,9.2c1.1,9.4,1.5,18.9,1.6,28.4c0,2.1-1.9,5-3.8,6.4c-9.4,6.9-18.7,13.9-28.7,20c-5.6,3.4-12,6.1-18.4,7.4
		c-11.8,2.4-23.9,4.1-36,5.1c-10.5,0.9-19.1-5.2-27.9-9.8c-7.5-3.9-14.9-8.1-22.2-12.4c-2-1.2-4.4-3-5.1-5.1
		C59,852.8,55,838.8,50.7,825c-2.1-6.8-4.8-13.5-6.5-20.4c-2.7-10.3-5-20.7-7-31.2c-1-5.6-3.7-9.7-7.8-13.5c-2.3-2.1-4.2-5.1-5.5-8
		c-10.6-23.6-12.3-48.8-12.9-74.2c-0.4-16.5,0.5-32.8,2.5-49.3c1.4-11.9-0.5-24.2-0.6-36.4c0-13.9,0.4-27.9,0.6-41.9
		c0.3-16.1,0.3-32.2,0.8-48.3c0.2-7.4,1.1-14.9,2.1-22.3c2.1-16.2,4.2-32.3,6.6-48.4c3.3-21.9,1.8-44.2,7.9-65.8
		c5.4-19,9.5-38.5,14.5-57.6c0.8-3.2,3-6.2,5.2-8.8c1.1-1.3,3.5-1.5,6.7-2.7c2.5-8.3,5.8-18.2,8.5-28.3c1.5-5.5,3-11.4,2.7-17
		c-0.2-3.9-3.6-7.5-5.5-11.3c-0.8-1.5-2.4-3.3-2.1-4.5c0.2-1.1,2.7-1.8,4.2-2.4c2.9-1.1,6-1.8,8.7-3.2c8.8-4.7,17.5-9.7,26.3-14.4
		C101.2,214.6,102.8,215.3,102.9,215.3z M122.3,598c-0.3,0.5-0.6,1.1-0.8,1.6c-4.6,0.7-9.5,2.8-13.7,1.9c-13-2.9-25.8-0.4-38.8-0.5
		c-14.3-0.1-25.6,7.2-37.3,13.8c-1.8,1-4,4.9-3.3,6.1c1.2,2.2,4.2,3.6,6.6,4.9c1,0.5,2.7,0.1,3.9-0.3c5.5-1.7,11-3.6,16.5-5.4
		c1-0.3,2.1-0.2,3.2-0.4c0.1,1.2,0.6,2.7,0.2,3.7c-0.7,1.6-2.2,2.9-3.2,4.4c-2.2,3.7-4.7,7.3-6.3,11.2c-2.2,5.4-2.5,12.6,2.2,15.2
		c5.2,2.9,5.8,9.5,10.9,11c5.9,1.7,12.3,2.8,18.5,2.6c8.4-0.2,16.7-1.9,25-3c7.1-1,14.1-2.4,19.9-7.2c2.4-2,5.1-3.9,7.9-5
		c6.6-2.5,11.9-5.3,8.9-13.8c-0.2-0.4,0-1,0.1-1.5c0.5-6.1-1.2-11.5-4.7-16.4c-4.1-5.5-8.1-11.1-12.1-16.7
		C124.5,602.3,123.5,600.1,122.3,598z M251.6,334c0.4-0.6,0.8-1.2,1.2-1.7c-8.8-5.4-15.5-14.1-27.2-17.5c0.7,2.3,1.4,3.4,1.4,4.4
		c-0.3,6.2,3.3,6.1,7.8,5.3c1-0.2,2.3,0.9,3.4,1.6C242.7,328.7,247.1,331.3,251.6,334z"/>
	<path class="st1" d="M113.6,115.4c-4.7,2.1-8.4,0.3-12.4-1.2c-6.7-2.5-13.4-4.8-20.9-3c-5.5,1.3-11.2,2.3-16.8,2.7
		c-1.7,0.1-4.9-2.1-5-3.4c-0.1-1.9,1.4-4.7,3.1-5.9c2.7-1.9,6.2-2.8,9.4-4.1c8.5-3.5,17.2-1.8,25.3,0.7
		C103.3,103.4,109.1,108.5,113.6,115.4z"/>
	<path class="st1" d="M107.8,130.8c-4.8,3.8-10,2-14.5,1c-7.1-1.5-11.9,1.2-17.1,7c-0.4-2.8-0.7-4.7-1.1-7.1
		c-0.8,1.5-1.5,2.7-2.2,4.1c-5.3-1.6-9.9-3.6-10.9-9.9c2.4-0.6,8.3,1.8,4.3-4.4c5.4-1.7,10.5-3.5,15.7-4.7
		C90.1,114.8,103.6,122.1,107.8,130.8z"/>
	<path class="st1" d="M78.2,190.3c-2.8,0.6-5,0.8-7.2,1.5c-3.1,0.9-5.3,0.4-8.2-1.5c-6-4.1-13-3.2-19.6-1.6
		c-1.5,0.4-2.5,3.1-4.1,5.4c-0.1,0-1.1-0.4-2.2-0.7c-2.3-0.7-5.1-0.9-4-4.8c1.1-3.7,5.2-7.1,7.9-6.8c4.9,0.4,10-0.2,14.9,0.7
		C63.4,183.8,72.6,181.5,78.2,190.3z"/>
	<path class="st1" d="M58.6,164c3.4,0,7.3-2.7,10.5-4c-0.3,1.8-0.7,3.9-1.1,6.1c-0.6-0.2-1.8-0.7-3.1-1.2c0.1,0.5,0.3,0.9,0.4,1.4
		c-2,1.2-4.1,3.5-6.1,3.4c-2-0.1-4.5-2.1-5.7-3.9c-1-1.4-5.5-2.5-1.9-5C52.6,160.1,55.8,164,58.6,164z"/>
	<path class="st1" d="M45.4,173.3c-3.6-2.6-7.2-5.2-10.8-7.8c0.2-0.3,0.4-0.6,0.6-0.9c1.7,0.8,3.3,1.6,4.9,2.4
		c-0.5-2.4-0.9-4.6-1.5-7.2C46.8,161.9,44.4,168.4,45.4,173.3z"/>
	<path class="st1" d="M175.5,274.2c-2.5-2.8-6.6-4.3-4.8-8.3c2.4,1.1,4.5,2.1,6.8,3.2C177,270.5,176.4,272,175.5,274.2z"/>
	<path class="st0" d="M33.6,115.4c-3.1,1-6.1,2-9.2,3c-0.2-0.8-0.5-1.6-0.7-2.4c3.1-0.7,6.2-1.5,9.2-2.2
		C33.2,114.3,33.4,114.8,33.6,115.4z"/>
	<path class="st0" d="M122.3,598c1.2,2.1,2.2,4.3,3.6,6.3c3.9,5.6,8,11.2,12.1,16.7c3.6,4.9,5.2,10.4,4.7,16.4
		c0,0.5-0.2,1.1-0.1,1.5c3,8.5-2.3,11.4-8.9,13.8c-2.9,1.1-5.5,3-7.9,5c-5.8,4.8-12.8,6.3-19.9,7.2c-8.3,1.1-16.7,2.8-25,3
		c-6.2,0.2-12.6-0.9-18.5-2.6c-5.1-1.5-5.7-8.1-10.9-11c-4.7-2.6-4.4-9.8-2.2-15.2c1.6-3.9,4.1-7.6,6.3-11.2
		c0.9-1.6,2.4-2.8,3.2-4.4c0.4-1-0.1-2.4-0.2-3.7c-1.1,0.1-2.2,0-3.2,0.4c-5.5,1.8-11,3.7-16.5,5.4c-1.2,0.4-2.9,0.8-3.9,0.3
		c-2.5-1.3-5.4-2.7-6.6-4.9c-0.6-1.2,1.5-5.1,3.3-6.1c11.6-6.6,23-13.9,37.3-13.8c12.9,0.1,25.8-2.4,38.8,0.5
		c4.2,0.9,9.1-1.2,13.7-1.9C121.7,599,122,598.5,122.3,598z M128.1,618.9c-0.3-0.3-0.6-0.5-0.9-0.8c-1.2,1-2.3,2.1-3.5,3.1
		c-1.2-1.7-2.3-3.1-3.9-5.3c-0.5,1.8-0.7,2.5-0.9,3.3c-0.2,0.7-0.4,1.5-0.6,2.4c-4.1-3.9-4.1-3.9-7.1-1.5c2.4,3.6,4.8,7.2,7.6,11.3
		c0.4-2,0.8-3.7,1.2-5.8c0.7,1.4,1.3,2.5,1.9,3.8C124.1,625.7,126.1,622.3,128.1,618.9z M124.9,647.3c0.6-7.2-0.2-8.6-4.1-7.9
		C122,641.8,123.2,644.1,124.9,647.3z"/>
	<path class="st0" d="M251.6,334c-4.5-2.7-9-5.3-13.5-8c-1.1-0.6-2.4-1.8-3.4-1.6c-4.5,0.8-8.1,1-7.8-5.3c0.1-1-0.6-2.1-1.4-4.4
		c11.7,3.4,18.4,12.1,27.2,17.5C252.4,332.8,252,333.4,251.6,334z"/>
	<path class="st1" d="M128.1,618.9c-2,3.4-4,6.8-6.2,10.6c-0.7-1.4-1.2-2.4-1.9-3.8c-0.4,2.1-0.8,3.7-1.2,5.8
		c-2.8-4.1-5.1-7.7-7.6-11.3c3-2.4,3-2.4,7.1,1.5c0.2-0.9,0.4-1.7,0.6-2.4c0.2-0.7,0.4-1.5,0.9-3.3c1.6,2.2,2.7,3.7,3.9,5.3
		c1.2-1,2.3-2.1,3.5-3.1C127.5,618.4,127.8,618.6,128.1,618.9z"/>
	<path class="st1" d="M124.9,647.3c-1.7-3.2-2.8-5.5-4.1-7.9C124.7,638.7,125.5,640.1,124.9,647.3z"/>
</g>
<g>
	<g>
		<linearGradient id="SVGID_1_" gradientUnits="userSpaceOnUse" x1="-790.8525" y1="317.5614" x2="-787.9545" y2="317.5614">
			<stop  offset="0" style="stop-color:#FFFFFF"/>
			<stop  offset="1" style="stop-color:#000000"/>
		</linearGradient>
		<path class="st2" d="M-789.4,319.1c1.9,0,1.9-3,0-3C-791.3,316.1-791.3,319.1-789.4,319.1L-789.4,319.1z"/>
	</g>
</g>
<g>
	<g>
		<linearGradient id="SVGID_2_" gradientUnits="userSpaceOnUse" x1="-320.677" y1="350.8947" x2="-317.7791" y2="350.8947">
			<stop  offset="0" style="stop-color:#FFFFFF"/>
			<stop  offset="1" style="stop-color:#000000"/>
		</linearGradient>
		<path class="st3" d="M-319.2,352.4c1.9,0,1.9-3,0-3C-321.2,349.4-321.2,352.4-319.2,352.4L-319.2,352.4z"/>
	</g>
</g>
</svg>
