<?xml version="1.0" encoding="utf-8"?>
<!-- Generator: Adobe Illustrator 21.0.0, SVG Export Plug-In . SVG Version: 6.00 Build 0)  -->
<svg version="1.1" id="Layer_1" xmlns="http://www.w3.org/2000/svg" xmlns:xlink="http://www.w3.org/1999/xlink" x="0px" y="0px"
	 viewBox="0 0 377.7 841" enable-background="new 0 0 377.7 841" xml:space="preserve">
<g>
	<g>
		<path fill="#2B3137" d="M98.9,0.9c93.2,0,186.5,0,279.7,0c0,280.3,0,560.5,0,840.9c-125.8,0-251.6,0-377.6,0
			C1,561.6,1,281.2,1,0.9c31.1,0,62.2,0,93.4,0C87.6,5.2,81,10.2,73.7,13.8c-8,3.9-12.3,10.4-13.2,18.3c-0.9,8.4-0.7,17.3,1.3,25.5
			c2.2,9.1,2.6,17.6,0.5,26.7c-1.5,6.7-1.5,13.7-2.1,20.6c-0.5,6.2-1.2,12.3-1.4,18.5c-0.4,9.4-1.3,18.9-0.7,28.3
			c0.9,14.2,7.2,26.7,13.3,39.3c3.6,7.5,8.8,13.3,14.9,18.4c2.9,2.4,5.8,2.3,8.7-0.3c-1.8-0.9-3.4-2.3-5.2-2.5
			c-4.4-0.4-7.1-3.1-9.1-6.4c-5.7-9.4-11.4-18.7-14.8-29.2c-5.2-16-6.7-32.1-1.5-48.2c0.6,0,1.5,0.2,2.1,0c2.5-1,5-2.2,7.5-3.3
			c0,0,0,0,0,0c0,1.5,0,2.9-0.1,4.4c0,0-0.2,0.2-0.2,0.2l0.3-0.1c5.7-0.3,11.4-0.7,13.3-7.5c0.9-3.2,1.5-6.6,2.3-9.9
			c1.2-4.6-0.6-8.4-4.2-10.9c-3.2-2.3-6.9-4.1-10.7-5.2c-3.6-1.1-5.2-2.9-5-6.3c1.2-0.9,2.2-1.8,2.4-2.8c0.7-3.6,0.6-7.5,4.7-9.4
			c0.7-0.3,1.5-1.4,1.5-2.1c-0.2-3.1,2.5-3.4,4.2-4.7c2.9-2.1,5.9-4.3,8.8-6.5c0.9-0.7,1.8-1.8,2.9-2c6.9-1,13.8-2.7,20.6-2.6
			c6.9,0.1,13.8,2.2,20.7,3.2c6.6,1,16.8,11.4,17.7,18.5c0.9,6.9,2.1,13.8,7,19.3c0.6,0.7,1.2,1.9,1.1,2.8
			c-0.5,4.6,2.7,7.1,5.1,10.1c1,1.2,1.9,2.8,1.9,4.3c0.4,11.8,0.6,23.6,1.1,35.4c0,1.1,1,2.2,1.5,3.2c0.9-1,2.3-1.8,2.7-2.9
			c1.5-4.3,2.3-8.9,4-13.2c1.4-3.6,3.6-6.9,5.7-10.2c0.4-0.6,2-0.4,3.1-0.6c0.1,1,0.5,2.1,0.3,3c-0.7,2.4-1.9,4.8-2.5,7.2
			c-1,3.9-1.8,7.9-2.5,11.9c-0.2,1.3,0,2.6,0,4.3c7.3-3.3,7.3-3.3,11.1-2.4c2.8-5,3.1-9.4,0.8-13c-2.4-3.9-1.3-6.5,3.9-8
			c1.5,3.4,3,6.8,4.5,10.2c3.2-7.2,1.6-13.2-4.3-18.4c4.7-2.4,5.1,2.6,7.5,3.4c0.3-0.3,0.6-0.5,0.7-0.7c2.6-16.4,5.2-32.7,7.6-49.1
			c0.4-2.4,0-5.1-0.5-7.5c-0.9-4.2-1.9-8.3-3.3-12.3c-0.9-2.6-2.2-5-3.8-7.2c-2.5-3.6-3.3-8.6-8.1-10.6c-0.5-0.2-0.3-1.8-0.8-2.4
			C193,28,189,23.6,185,19.1c-0.2-0.2-0.6-0.2-0.8-0.2c-4.8,0.2-7.9-2.1-10-6.2c-0.1-0.3-0.7-0.4-1.4-0.8c0.1,1.9,0.2,3.6,0.3,5.7
			c-0.9-0.4-1.7-0.6-1.9-0.9c-3.2-6.4-9.8-8.3-15.3-11.5c-1-0.6-3.5-0.7-4-0.1c-2.3,2.8-4.6,0.8-6.9,0.5c-3.1-0.3-6.2-1.4-9.3-1.3
			c-9.8,0-19.7-1.9-29.5,0.5C102.3,5.6,100.1,4.4,98.9,0.9z M177.3,174.6c4.2-2.3,4.9-6.5,5.2-10.6c0.1-1.2-1.6-2.5-2.4-3.7
			c-0.7,1-1.8,1.9-1.9,3C177.7,167,177.5,170.8,177.3,174.6c-0.4,0.2-0.6,0.5-0.9,0.8c-1.3,0-2.6,0-3.8,0c-0.2,1.5-0.3,2.7-0.5,4.4
			c-1.4-1.8-2.3-3-3.4-4.4c-4.6,5.7-12.3-0.9-17.3,5.6c-3.5,4.5-10.8,5.7-13,11.5c-1.7,0-3-0.4-3.9,0.1c-5.5,2.8-10.9,5.9-16.3,8.8
			c-5.3,2.9-10.3,6.2-16.6,7c-3.1,0.4-2.5,3.2-0.9,5.2c1.1,1.4,2.4,2.5,3.6,3.8c-0.1,0.1-0.2,0.2-0.2,0.3c0,0.2,0.1,0.4,0.2,0.6
			c3,3.6,3.6,7.8,2.4,12.1c-2.4,8.6-5.1,17.1-7.6,25.6c-1,3.5-1.9,7-2.8,10.5c-0.3-0.4-0.6-0.7-1-1.1c-1.4,0.4-3.5,0.4-4.2,1.3
			c-2,2.6-4.3,5.4-5.1,8.5c-3.3,12.2-5.2,24.7-9.2,36.7c-7.9,24.2-8.2,49.3-10.9,74.2c-1.2,10.8-2.6,21.5-4,32.2
			c-1.2,10-3,19.9-3.6,29.9c-0.8,14.3-0.5,28.7-0.9,43.1c-0.3,11.4-1,22.8-1,34.2c0,8.3,1.5,16.6,1.3,24.8
			c-0.2,9.2-2.4,18.3-2.4,27.4c0,18.4,1,36.7,1.6,55.1c0.5,14.4,5.8,27.5,10.7,40.7c0.6,1.7,2.2,3.2,3.6,4.3c4,3.2,6.3,7.1,7.3,12.3
			c1.9,9.9,4.1,19.8,6.7,29.5c3.1,11.7,6.7,23.3,10.1,35c3.3,11,6.5,21.9,9.8,32.9c1.2,4,2.3,8,3.5,12c2,7.2,4.7,14.1,10,19.6
			c1.4,1.5,3.6,3.5,5.4,3.4c9.3-0.3,18.8-0.3,27.8-2.2c11.2-2.4,22.1-3.8,33.2,0c4.8,1.7,9.4,2.5,14.2,0.1c1.2-0.6,3-0.4,4.3,0
			c3.9,1.3,7.1,0,9.7-2.7c3-3.1,5.2-7,8.4-9.7c5.8-4.9,9.1-10.8,9.1-18.4c0-6.3,0-12.6,0-19c-1.2-6.2-2.4-12.5-3.5-18.7
			c0-5,0.4-10.1-0.3-15.1c-0.5-4,0.8-6,4.3-7.5c9.9-4.4,16.8-12,19.1-22.6c3.1-14.1,8.7-27.7,8-42.5c-0.1-2.3,0.8-4.7,1.3-7
			c1.2-5.5,3.7-11,3.5-16.5c-0.8-15.8-2.7-31.6-4.1-47.4c-0.3-3.7-0.5-7.4-0.5-11.1c0.1-8,0.6-16,0.7-24c0-4,1.1-7,4.7-9.3
			c12.1-7.7,24-15.8,36-23.6c4.7-3,9.5-5.7,14.6-8.7c0.8,1.9,1.3,3,1.9,4.4c1-0.6,1.9-1.1,2.7-1.7c7.6-5.4,15-11.2,22.8-16.3
			c7.3-4.8,12.8-11,16.9-18.5c1.1-1.9,1.6-4.6,1.2-6.7c-3.4-16.7-5.9-33.7-12.6-49.5c-1.3-3.1-3.2-5.9-5.1-8.7
			c-3-4.5-6.1-9-9.2-13.5c-1.7-2.4-3.5-4.7-5.6-7.5c0,0,1.1-1.6,0.8-1.9c-3.1-3.3-6-7.5-9.9-9.2c-4.5-1.9-5.9-3.4-3-7.7
			c1.1-1.6,2.5-4.3,1.9-5.5c-2.3-4.3-4.4-9.6-10-10.5c-4.3-0.7-5-3.1-5.5-6.7c-0.3-2.2-1-5.5-2.6-6.2c-3.1-1.5-4.1-4-4.9-6.7
			c-1.7-5.3-6.2-9.8-4.9-16.1c1.8-8.4-0.1-16.5-1.8-24.7c-3.3-15.8-9.6-29.9-22.6-40.1c-2.1-1.7-6.1-4-7.3-3.2
			c-3.8,2.5-6-0.3-8.7-1.3c-3-1.2-6.3-2.1-8.7-4c-5.4-4.4-5.8-4.7-12.8,0.4c9.2-1.2,12.1,6.4,17.3,10.8c0.1,0.1,0.2,0.2,0.4,0.3
			c5.9,4.6,11.9,9.1,17.8,13.7c0.7,0.5,1,1.4,1.5,2.2l-0.2,0.2c-4-1.8-8.1-3.5-12.1-5.4c-4.8-2.3-8.2-7.5-14-7
			c-2.6,0.2-3.8-0.3-4.9-2.3c-0.6-0.9-1.7-1.5-2.5-2.3l-0.1-0.1c-1.3,0.9-2.5,1.8-4.3,3c-1.5-2.6-3.2-5.6-5.1-8.5
			c-0.6-0.8-2.3-1.6-3.1-1.3c-4.1,1.7-8,3.7-12,5.5c-1.2,0.5-3.2,1.2-3.7,0.7c-1.2-1.2-2.1-3.1-2.5-4.8c-0.4-2.3-0.1-4.7-0.1-7.6
			c0.2-0.1,1.1-0.7,2.1-1.4c-1-1-1.7-1.8-2.4-2.5c2.1-3.3,4.2-6.6,6.6-10.3c-2.2-0.2-3.1-0.3-4.3-0.4c0.6-2,4.3-4.5-1-5.3
			c-1.2,2.6-3.2,5-3.4,7.6c-0.2,2.8,1.4,5.6,2.1,8.5c-4.3-1-6.2,2.4-8.9,6.2c0-3,0-4.7,0-6.3c0-0.6,0-1.2,0-1.8
			c1.6-4.9-1.2-11.1,4.6-14.7c0.3-0.2-0.2-1.5,0.1-2.1c1.3-2.7,2.8-5.4,4.2-8.1l0,0c0.9-1.6,1.5-3.5,2.8-4.8
			c7.2-7.3,7.3-20.1,0.1-27.3c-0.8-0.8-2.1-1.4-3.1-1.4c-5.4,0-5-5.5-7.8-8.1c-0.2-0.2,0.5-1.5,0.8-2.3c3-8.2,6.1-16.5,9.1-24.8
			c0.3-0.9-0.2-2.1-0.3-3.4c-2.4,1.6-4.6,2.6-6.1,4.2c-1.5,1.6-2.4,3.8-3.7,5.7c-0.7,1-1.9,1.6-2.3,2.6c-1.1,2.5-3.2,5.4-2.7,7.7
			c0.8,3.5-0.3,5.9-2.4,7.9c-1.5,1.5-3.9,2.1-5.9,3.2c-0.5-1.9-1-3.7-1.5-5.6C176.7,175.2,177,174.9,177.3,174.6z M85.5,157.7
			c3-1.9,5.8-4.5,9.1-5.6c3.9-1.3,8.3-1.4,12.4-2.1c-0.3-0.4-0.5-0.8-0.8-1.2c0.3-1.9,0.6-3.9,1-6.1c-1.1,0.4-2.1,0.8-3.2,1.3
			c-3.4,1.4-6.8,4-10.2-0.2c-0.5-0.6-2.5-0.6-3.2,0c-0.6,0.5-0.5,2-0.6,3.1c-0.2,1.8-0.4,3.6-0.7,5.7c-2.7-3.3-4.5-5.7-6.5-7.9
			c-2.5-2.8-4.6-0.9-6.3,1c-2.2,2.3,0.4,3.3,1.7,4.4c1.4,1.3,2.8,3.2,4.4,3.5C85.7,154,85.5,155.8,85.5,157.7
			C85.5,157.7,85.5,157.7,85.5,157.7z M143.4,116.7c-1.7-1.2-3.6-2.1-5-3.6c-6.9-7.5-15.1-10.4-25.1-7.7c-1.4,0.4-3.1-0.2-4.7-0.3
			l0,0c-0.9,2.3-6.3,2.3-3.2,6.6c-1.8,0.4-3.3,0.7-4.6,1c0,5.9,4.2,7.4,8.3,8.8c0.7,0.2,2.1-1.2,2.9-1.8c0.4,1.2,0.9,2.8,1.4,4.3
			c2.1-1.5,3.5-2.6,5-3.6c4.9-3.3,10.1-0.9,15.1-0.6C137.3,120,141.1,120.8,143.4,116.7L143.4,116.7z M113.9,88.6
			c-4,1.5-9.5,3.4-14.8,5.9c-1.2,0.6-1.9,3.8-1.4,5.4c0.4,1.2,3,2.6,4.5,2.4c5.3-0.5,10.5-1.8,15.8-2.5c2.2-0.3,4.5-0.2,6.7,0.3
			c5.1,1.2,10.1,2.7,15.1,4.1c1.1,0.3,2.3,0.5,3.5,0.5c2.3-0.1,3.8-1.7,1.9-3.3c-4.9-4.1-9.9-8.4-15.6-11.1
			C125.6,88.4,120.3,89.2,113.9,88.6z M115.1,170.8c-0.3-0.6-0.3-1.1-0.6-1.4c-2.4-3.5-9.9-6.3-13.9-5.3c-0.7,0.2-2,0.6-2.1,0.4
			c-2.2-3.6-5.5-1.7-8.1-1.3c-4.3,0.6-8.2,0.7-11.1-4.7c0,2.5,0,3.7,0,5.1c-4.1,0.2-4.8,3.4-4.8,6.3c0.1,4.2,4.2,3.6,5.4,4.2
			c2.1-2.3,3.3-4.6,5.1-5.4c2-0.9,4.6-0.5,7-0.5c7.5,0.1,14.2,6.3,22.1,3C114.4,171,114.5,171,115.1,170.8z"/>
		<path fill="#121518" d="M98.9,0.9c1.3,3.5,3.4,4.7,7.2,3.8c9.8-2.3,19.6-0.4,29.5-0.5c3.1,0,6.2,1,9.3,1.3
			c2.3,0.2,4.6,2.3,6.9-0.5c0.5-0.7,2.9-0.5,4,0.1c5.5,3.2,12.1,5.1,15.3,11.5c0.2,0.4,1,0.5,1.9,0.9c-0.1-2.1-0.2-3.8-0.3-5.7
			c0.7,0.4,1.3,0.5,1.4,0.8c2,4.1,5.2,6.4,10,6.2c0.3,0,0.7,0,0.8,0.2c4,4.4,8,8.8,11.9,13.3c0.5,0.6,0.3,2.2,0.8,2.4
			c4.8,2,5.6,6.9,8.1,10.6c1.5,2.2,2.9,4.7,3.8,7.2c1.4,4,2.4,8.2,3.3,12.3c0.5,2.4,0.8,5.1,0.5,7.5c-2.4,16.4-5,32.7-7.6,49.1
			c0,0.2-0.4,0.4-0.7,0.7c-2.4-0.8-2.8-5.7-7.5-3.4c5.8,5.2,7.5,11.2,4.3,18.4c-1.5-3.4-3-6.8-4.5-10.2c-5.2,1.6-6.4,4.1-3.9,8
			c2.3,3.6,2,8-0.8,13c-3.8-0.9-3.8-0.9-11.1,2.4c0-1.6-0.2-3,0-4.3c0.7-4,1.5-8,2.5-11.9c0.6-2.5,1.8-4.8,2.5-7.2
			c0.3-0.9-0.2-2-0.3-3c-1.1,0.2-2.7,0-3.1,0.6c-2.1,3.3-4.3,6.6-5.7,10.2c-1.7,4.2-2.5,8.8-4,13.2c-0.4,1.1-1.8,1.9-2.7,2.9
			c-0.5-1.1-1.4-2.1-1.5-3.2c-0.4-11.8-0.6-23.6-1.1-35.4c-0.1-1.5-1-3.1-1.9-4.3c-2.4-3-5.6-5.6-5.1-10.1c0.1-0.9-0.4-2.1-1.1-2.8
			c-4.9-5.6-6.1-12.5-7-19.3c-0.9-7.1-11.1-17.6-17.7-18.5c-6.9-1-13.8-3.1-20.7-3.2c-6.9-0.1-13.8,1.5-20.6,2.6
			c-1,0.2-1.9,1.3-2.9,2c-2.9,2.1-5.9,4.3-8.8,6.5c-1.7,1.3-4.4,1.6-4.2,4.7c0,0.7-0.8,1.8-1.5,2.1c-4.1,1.9-4,5.8-4.7,9.4
			c-0.2,1.1-1.2,2-2.4,2.8c-0.3,3.4,1.3,5.2,5,6.3c3.8,1.1,7.5,3,10.7,5.2c3.5,2.5,5.3,6.3,4.2,10.9c-0.8,3.3-1.4,6.6-2.3,9.9
			c-1.9,6.9-7.6,7.2-13.3,7.5l-0.1-0.1c0-1.5,0-2.9,0.1-4.4c0.9-0.3,1.8-0.6,2.7-0.9c0.2,0.2,0.3,0.4-0.1-0.1
			c0.4,0.5,0.2,0.3,0.1,0.1c-0.9,0.3-1.8,0.6-2.7,0.9c-2.5,1.1-5,2.3-7.5,3.3c-0.7,0.3-1.6,0-2.1,0c-5.2,16.1-3.6,32.1,1.5,48.2
			c3.4,10.6,9.1,19.9,14.8,29.2c2,3.3,4.7,6,9.1,6.4c1.8,0.2,3.4,1.6,5.2,2.5c-2.9,2.6-5.7,2.8-8.7,0.3
			c-6.2-5.2-11.3-10.9-14.9-18.4c-6.1-12.6-12.4-25.2-13.3-39.3c-0.6-9.4,0.3-18.8,0.7-28.3c0.3-6.2,0.9-12.3,1.4-18.5
			c0.6-6.9,0.6-13.9,2.1-20.6c2-9.1,1.7-17.6-0.5-26.7c-2-8.1-2.2-17.1-1.3-25.5c0.9-7.9,5.2-14.4,13.2-18.3
			C81,10.2,87.6,5.2,94.4,0.9C95.9,0.9,97.4,0.9,98.9,0.9z M66.7,104.1c0.2,0.8,0.4,1.6,0.6,2.3c2.8-0.8,5.7-1.6,8.5-2.4
			c-0.1-0.6-0.3-1.2-0.4-1.7C72.5,102.9,69.6,103.5,66.7,104.1z"/>
		<path fill="#121518" d="M176.4,175.5c0.5,1.9,1,3.7,1.5,5.6c2-1,4.4-1.7,5.9-3.2c2.1-2,3.2-4.4,2.4-7.9c-0.5-2.3,1.6-5.2,2.7-7.7
			c0.5-1,1.7-1.7,2.3-2.6c1.3-1.9,2.1-4.1,3.7-5.7c1.5-1.6,3.7-2.6,6.1-4.2c0.2,1.3,0.7,2.5,0.3,3.4c-2.9,8.3-6,16.5-9.1,24.8
			c-0.3,0.8-1,2.1-0.8,2.3c2.7,2.5,2.4,8,7.8,8.1c1,0,2.3,0.7,3.1,1.4c7.2,7.2,7.1,20-0.1,27.3c-1.2,1.3-1.9,3.2-2.8,4.8l0,0
			c-1.4,2.7-2.9,5.4-4.2,8.1c-0.3,0.6,0.2,1.9-0.1,2.1c-5.9,3.6-3,9.9-4.6,14.7c0,0,0,0,0,0c-0.6,0.6-1.2,1.3-1.8,1.9
			c0.6,0,1.2,0,1.8-0.1l0,0c0,1.6,0,3.2,0,6.3c2.8-3.8,4.6-7.3,8.9-6.2l0,0c0.7,0.7,1.4,1.5,2.4,2.5c-1,0.7-1.8,1.3-2.1,1.4
			c0,2.9-0.3,5.3,0.1,7.6c0.3,1.7,1.2,3.5,2.5,4.8c0.5,0.5,2.5-0.2,3.7-0.7c4-1.8,8-3.8,12-5.5c0.8-0.3,2.6,0.5,3.1,1.3
			c2,2.8,3.6,5.9,5.1,8.5c1.8-1.2,3-2.1,4.3-3c0,0,0.1,0.1,0.1,0.1c0.9,0.8,2,1.4,2.5,2.3c1.2,2,2.4,2.5,4.9,2.3
			c5.8-0.5,9.3,4.8,14,7c4,1.9,8.1,3.6,12.1,5.4c0.1,0,0.2,0,0.4,0.1c-0.1-0.1-0.1-0.2-0.2-0.3c-0.5-0.7-0.8-1.6-1.5-2.2
			c-5.9-4.6-11.8-9.2-17.8-13.7c-0.1-0.1-0.2-0.2-0.4-0.3c-5.2-4.4-8.2-12-17.3-10.8c7-5.1,7.4-4.8,12.8-0.4c2.4,2,5.7,2.8,8.7,4
			c2.7,1.1,4.9,3.9,8.7,1.3c1.2-0.8,5.2,1.5,7.3,3.2c13,10.2,19.3,24.4,22.6,40.1c1.7,8.1,3.5,16.3,1.8,24.7
			c-1.3,6.3,3.2,10.8,4.9,16.1c0.9,2.7,1.8,5.2,4.9,6.7c1.5,0.7,2.3,4,2.6,6.2c0.5,3.5,1.2,6,5.5,6.7c5.6,0.9,7.7,6.1,10,10.5
			c0.6,1.2-0.8,3.9-1.9,5.5c-2.9,4.4-1.5,5.9,3,7.7c3.9,1.6,6.8,5.9,9.9,9.2c0.3,0.3-0.8,1.9-0.8,1.9c2,2.7,3.9,5.1,5.6,7.5
			c3.1,4.5,6.3,8.9,9.2,13.5c1.8,2.8,3.8,5.6,5.1,8.7c6.8,15.8,9.3,32.8,12.6,49.5c0.4,2.1-0.1,4.8-1.2,6.7
			c-4.1,7.5-9.6,13.7-16.9,18.5c-7.8,5.1-15.2,10.8-22.8,16.3c-0.8,0.6-1.7,1-2.7,1.7c-0.6-1.4-1.1-2.6-1.9-4.4
			c-5.1,3-9.9,5.7-14.6,8.7c-12.1,7.8-23.9,15.9-36,23.6c-3.6,2.3-4.7,5.3-4.7,9.3c-0.1,8-0.6,16-0.7,24c-0.1,3.7,0.1,7.4,0.5,11.1
			c1.4,15.8,3.3,31.5,4.1,47.4c0.3,5.4-2.3,11-3.5,16.5c-0.5,2.3-1.4,4.7-1.3,7c0.7,14.8-4.9,28.5-8,42.5
			c-2.4,10.6-9.2,18.1-19.1,22.6c-3.5,1.6-4.8,3.5-4.3,7.5c0.6,5,0.2,10.1,0.3,15.1c-5.8,3.2-11.6,6.3-17.3,9.7
			c-6.1,3.6-11.7,8-18,11.2c-6,3-12.6,5.3-19.1,7.2c-4.6,1.4-9.5,2.3-14.3,2.1c-14.3-0.3-25.9-7.5-36.8-15.9
			c-7.8-6-16.1-11.1-26.3-11.7c-3.4-11.7-7-23.3-10.1-35c-2.6-9.7-4.8-19.6-6.7-29.5c-1-5.2-3.3-9-7.3-12.3c-1.4-1.2-3-2.7-3.6-4.3
			c-4.9-13.2-10.2-26.3-10.7-40.7c-0.6-18.4-1.5-36.7-1.6-55.1c0-9.1,2.2-18.3,2.4-27.4c0.2-8.3-1.3-16.6-1.3-24.8
			c0-11.4,0.7-22.8,1-34.2c0.3-14.4,0.1-28.7,0.9-43.1c0.5-10,2.3-20,3.6-29.9c1.3-10.7,2.8-21.5,4-32.2c2.7-24.9,3-50,10.9-74.2
			c3.9-11.9,5.9-24.5,9.2-36.7c0.8-3.1,3.1-5.9,5.1-8.5c0.8-1,2.8-0.9,4.2-1.3c0.3,0.4,0.6,0.7,1,1.1c0.9-3.5,1.8-7.1,2.8-10.5
			c2.5-8.5,5.2-17,7.6-25.6c1.2-4.3,0.6-8.5-2.4-12.1l0,0c0-0.3,0-0.7,0-1l0,0c-1.2-1.3-2.5-2.4-3.6-3.8c-1.6-2-2.2-4.8,0.9-5.2
			c6.3-0.8,11.3-4.1,16.6-7c5.4-2.9,10.8-6,16.3-8.8c0.9-0.5,2.2-0.1,3.9-0.1c2.2-5.8,9.5-7,13-11.5c5.1-6.5,12.7,0.1,17.3-5.6
			c1.1,1.4,2,2.6,3.4,4.4c0.2-1.8,0.3-2.9,0.5-4.4C173.8,175.5,175.1,175.5,176.4,175.5C176.4,175.5,176.4,175.5,176.4,175.5z
			 M247.7,285.1c-0.7,3.6,1.1,4.9,4.5,5.6c3.4,0.7,6.7,2.3,9.9,3.7c2.7,1.1,5.2,2.6,7.8,3.9c0.3-0.4,0.6-0.9,0.9-1.3
			c-1.6-1.2-3.2-2.5-4.9-3.7c-0.9-0.6-2.1-0.9-3-1.5c-4.3-3.1-8.4-6.7-12.9-9.5c-2.6-1.6-3.4,0.2-2.4,2.7L247.7,285.1z M154.4,534.3
			c-3.2,0.8-5.7,1.9-8.2,2c-5.3,0-10.5-0.7-15.8-0.8c-5.9-0.1-11.8,0.4-17.8,0.4C98,535.8,85,540.9,73,549c-1.4,1-3,3.8-2.5,4.9
			c0.8,1.8,3,3.4,5,4.3c1.3,0.6,3.2,0.2,4.8-0.2c5.7-1.5,11.4-3.3,17.3-5c1.9,3.5-1.4,5.1-2.9,7.4c-4.6,6.7-9.4,13.8-4.5,22
			c2.5,4.1,7.3,6.8,10,11.1c0.3,0.5,1.3,0.8,2,0.9c5.3,0.6,10.6,1.9,15.8,1.6c7.8-0.4,15.5-1.5,23.2-3c4.9-0.9,9.6-2.8,14.2-4.8
			c4.9-2.2,9.4-5.3,14.2-7.7c2.6-1.3,3.9-2.9,3.4-5.9c-0.4-2.6,0.1-5.4-0.5-7.9c-0.9-3.9-1.8-8.1-3.8-11.4
			c-3.9-6.5-10.2-11.4-12.6-18.9C155.7,535.2,154.6,534.5,154.4,534.3z M187.7,169l-0.1,0.3l0.3,0L187.7,169z"/>
		<path fill="#181C20" d="M95.4,754.5c10.3,0.6,18.5,5.7,26.3,11.7c10.9,8.4,22.5,15.5,36.8,15.9c4.7,0.1,9.7-0.8,14.3-2.1
			c6.5-1.9,13-4.2,19.1-7.2c6.3-3.2,12-7.6,18-11.2c5.7-3.4,11.5-6.5,17.3-9.7c1.2,6.2,2.4,12.5,3.5,18.7c-5.1,4-10.3,8-15.4,12
			c-8.9,6.9-17.4,14.4-29.3,15.9c-7.8,0.9-15.5,2.8-23.3,3.5c-8.9,0.8-18.1,2.4-26.8-1.3c-5.3-2.2-10.4-5-15.7-7.3
			c-5-2.2-10.1-4.1-15.2-6.1C101.9,776.5,98.7,765.5,95.4,754.5z"/>
		<path fill="#24292F" d="M105.2,787.5c5.1,2,10.2,3.9,15.2,6.1c5.3,2.3,10.4,5,15.7,7.3c8.7,3.7,17.9,2.1,26.8,1.3
			c7.8-0.7,15.5-2.6,23.3-3.5c11.9-1.4,20.4-9,29.3-15.9c5.1-4,10.3-8,15.4-12c0,6.3,0,12.6,0,19c0,7.6-3.3,13.5-9.1,18.4
			c-3.2,2.7-5.4,6.6-8.4,9.7c-2.6,2.7-5.8,4-9.7,2.7c-1.3-0.4-3.1-0.6-4.3,0c-4.8,2.3-9.4,1.5-14.2-0.1c-11.1-3.8-22-2.4-33.2,0
			c-9,1.9-18.5,1.9-27.8,2.2c-1.8,0.1-3.9-1.9-5.4-3.4c-5.3-5.5-8-12.4-10-19.6C107.5,795.4,106.3,791.4,105.2,787.5z"/>
		<path fill="#121518" d="M143.4,116.7c-2.3,4.1-6.1,3.3-9.8,3.1c-5.1-0.3-10.2-2.6-15.1,0.6c-1.5,1-2.9,2.1-5,3.6
			c-0.5-1.5-1-3.1-1.4-4.3c-0.8,0.5-2.1,2-2.9,1.8c-4.1-1.3-8.3-2.9-8.3-8.8c1.3-0.3,2.8-0.6,4.6-1c-3.1-4.4,2.3-4.3,3.2-6.6l0,0
			c1.6,0.1,3.3,0.7,4.7,0.3c10-2.7,18.2,0.1,25.1,7.7C139.8,114.6,141.8,115.5,143.4,116.7L143.4,116.7z"/>
		<path fill="#121518" d="M113.9,88.6c6.4,0.6,11.7-0.1,15.7,1.7c5.7,2.7,10.7,7,15.6,11.1c2,1.7,0.4,3.2-1.9,3.3
			c-1.2,0-2.4-0.2-3.5-0.5c-5-1.3-10-2.9-15.1-4.1c-2.1-0.5-4.5-0.6-6.7-0.3c-5.3,0.7-10.5,2-15.8,2.5c-1.5,0.1-4.2-1.2-4.5-2.4
			c-0.5-1.6,0.2-4.8,1.4-5.4C104.4,91.9,109.9,90.1,113.9,88.6z"/>
		<path fill="#121518" d="M115.1,170.8c-0.6,0.2-0.7,0.2-0.8,0.3c-8,3.3-14.6-3-22.1-3c-2.4,0-5-0.4-7,0.5c-1.9,0.8-3.1,3.1-5.1,5.4
			c-1.3-0.6-5.3,0-5.4-4.2c-0.1-2.9,0.6-6.1,4.8-6.3c0-1.3,0-2.6,0-5.1c2.9,5.4,6.8,5.3,11.1,4.7c2.6-0.3,5.9-2.3,8.1,1.3
			c0.1,0.2,1.4-0.2,2.1-0.4c4-1,11.5,1.8,13.9,5.3C114.8,169.7,114.8,170.1,115.1,170.8z"/>
		<path fill="#181C20" d="M85.5,157.7c-0.1-1.9,0.2-3.7-2.7-4.1c-1.6-0.3-3-2.2-4.4-3.5c-1.3-1.2-3.9-2.1-1.7-4.4
			c1.7-1.9,3.8-3.8,6.3-1c2,2.2,3.8,4.7,6.5,7.9c0.2-2.1,0.4-3.9,0.7-5.7c0.1-1.1,0-2.6,0.6-3.1c0.7-0.5,2.7-0.5,3.2,0
			c3.4,4.2,6.8,1.6,10.2,0.2c1-0.4,2.1-0.8,3.2-1.3c-0.4,2.2-0.7,4.1-1,6.1c0.3,0.4,0.5,0.8,0.8,1.2c-4.2,0.6-8.5,0.7-12.4,2.1
			C91.4,153.2,88.6,155.8,85.5,157.7L85.5,157.7z"/>
		<path fill="#181C20" d="M199.6,248.6c-0.8-2.8-2.3-5.7-2.1-8.5c0.2-2.6,2.1-5,3.4-7.6c5.3,0.9,1.5,3.3,1,5.3
			c1.2,0.1,2.2,0.2,4.3,0.4C203.7,242,201.6,245.3,199.6,248.6C199.5,248.6,199.6,248.6,199.6,248.6z"/>
		<path fill="#121518" d="M177.3,174.6c0.3-3.8,0.4-7.5,0.9-11.3c0.1-1.1,1.3-2,1.9-3c0.9,1.2,2.5,2.6,2.4,3.7
			C182.2,168.1,181.6,172.4,177.3,174.6L177.3,174.6z"/>
		<path fill="#121518" d="M190.6,246.8c0,0.6,0,1.2,0,1.8c0,0,0,0,0,0C190.7,248,190.7,247.4,190.6,246.8L190.6,246.8z"/>
		<polygon fill="#121518" points="74,123.9 73.7,124 73.9,123.8 		"/>
		<path fill="#121518" d="M104.3,218.3c-0.1-0.2-0.2-0.4-0.2-0.6c0-0.1,0.1-0.2,0.2-0.3c0,0,0,0,0,0
			C104.2,217.7,104.2,218,104.3,218.3C104.2,218.3,104.3,218.3,104.3,218.3z"/>
		<path fill="#121518" d="M108.7,105.1C108.7,105.1,108.7,105.1,108.7,105.1C108.7,105.1,108.7,105.1,108.7,105.1z"/>
		<path fill="#121518" d="M143.4,116.7C143.4,116.7,143.4,116.7,143.4,116.7C143.4,116.7,143.4,116.7,143.4,116.7z"/>
		<path fill="#121518" d="M199.5,221.8C199.5,221.8,199.6,221.8,199.5,221.8C199.6,221.8,199.5,221.8,199.5,221.8z"/>
		<path fill="#181C20" d="M85.5,157.7C85.5,157.7,85.5,157.7,85.5,157.7C85.5,157.7,85.5,157.7,85.5,157.7z"/>
		<path fill="#121518" d="M177.3,174.6c-0.3,0.3-0.6,0.6-0.9,0.9c0,0-0.1-0.1-0.1-0.1C176.7,175.2,177,174.9,177.3,174.6
			C177.3,174.6,177.3,174.6,177.3,174.6z"/>
		<path fill="#24292F" d="M66.7,104.1c2.9-0.6,5.8-1.2,8.7-1.8c0.1,0.6,0.3,1.2,0.4,1.7c-2.8,0.8-5.7,1.6-8.5,2.4
			C67.1,105.7,66.9,104.9,66.7,104.1z"/>
		<path fill="#2B3137" d="M76.6,118.5c-0.9,0.3-1.8,0.6-2.7,0.9c0,0,0,0,0,0C74.8,119.1,75.7,118.8,76.6,118.5L76.6,118.5z"/>
		<path fill="#2B3137" d="M76.6,118.5C76.8,118.7,76.9,118.9,76.6,118.5C76.9,118.9,76.8,118.7,76.6,118.5
			C76.6,118.5,76.6,118.5,76.6,118.5z"/>
		<path fill="#2B3137" d="M154.4,534.3c0.2,0.2,1.3,0.9,1.7,1.9c2.5,7.5,8.7,12.5,12.6,18.9c2,3.4,2.9,7.5,3.8,11.4
			c0.6,2.5,0.1,5.3,0.5,7.9c0.5,3.1-0.8,4.6-3.4,5.9c-4.8,2.5-9.3,5.5-14.2,7.7c-4.5,2-9.3,3.9-14.2,4.8c-7.6,1.5-15.4,2.6-23.2,3
			c-5.2,0.3-10.5-1-15.8-1.6c-0.7-0.1-1.7-0.4-2-0.9c-2.7-4.3-7.5-7-10-11.1c-4.9-8.2-0.2-15.3,4.5-22c1.5-2.2,4.8-3.9,2.9-7.4
			c-5.9,1.7-11.6,3.5-17.3,5c-1.5,0.4-3.5,0.8-4.8,0.2c-2-0.9-4.2-2.5-5-4.3c-0.5-1.1,1.1-4,2.5-4.9c12-8.1,24.9-13.3,39.7-13.1
			c5.9,0,11.8-0.5,17.8-0.4c5.3,0.1,10.5,0.8,15.8,0.8C148.7,536.2,151.2,535.1,154.4,534.3z M151.5,563.1c0,0-0.1-0.1-0.1-0.1
			L151.5,563.1z M144.4,569.4l-0.2-0.2c-0.1-1.4-0.3-2.8-0.4-4.2c-1.5,0.9-2.8,2.5-2.4,3.3c1.1,1.9,2.8,3.5,4.7,5.6
			C147.7,570.4,147.3,569.1,144.4,569.4z M144.3,554.1c1.4,1.6,2.8,3.4,4.4,4.8c0.8,0.7,2.2,0.6,3.3,0.9c0.1-0.4,0.3-0.8,0.4-1.2
			c0.5,1,1,1.9,1.6,3.2c2.1-3.4,3.9-6.4,5.7-9.4c-0.4-0.3-0.9-0.6-1.3-0.9c-1,0.7-1.9,1.5-2.9,2.2c-1.1-1.3-2.1-2.4-3.3-3.9
			c-0.5,1-0.8,1.5-1,2c-0.2,0.6-0.4,1.3-0.6,2C147,551,147,551,144.3,554.1z M157.7,577.2c-0.3-4.5-0.6-8.2-1-12.4
			C151.9,569.4,152,572,157.7,577.2z"/>
		<path fill="#2B3137" d="M247.6,285c-1-2.5-0.2-4.3,2.4-2.7c4.5,2.8,8.6,6.3,12.9,9.5c0.9,0.7,2.1,0.9,3,1.5
			c1.7,1.1,3.3,2.4,4.9,3.7c-0.3,0.4-0.6,0.9-0.9,1.3c-2.6-1.3-5.2-2.7-7.8-3.9c-3.2-1.4-6.5-3-9.9-3.7c-3.4-0.7-5.2-1.9-4.5-5.6
			L247.6,285z"/>
		<path fill="#2B3137" d="M190.7,246.8c0,0.6,0,1.2,0,1.8c-0.6,0-1.2,0-1.8,0.1C189.4,248,190.1,247.4,190.7,246.8z"/>
		<polygon fill="#2B3137" points="187.7,169 187.8,169.2 187.6,169.2 		"/>
		<path fill="#2B3137" d="M264.6,282.4c0.1,0.1,0.1,0.2,0.2,0.3c-0.1,0-0.2,0-0.4-0.1C264.4,282.6,264.6,282.4,264.6,282.4z"/>
		<path fill="#2B3137" d="M230.8,265.5C230.8,265.5,230.7,265.5,230.8,265.5C230.7,265.5,230.8,265.5,230.8,265.5z"/>
		<path fill="#2B3137" d="M247.7,285.1c0,0-0.2-0.2-0.2-0.2C247.6,285,247.7,285.1,247.7,285.1z"/>
		<path fill="#2B3137" d="M104.2,218.3c0-0.3,0-0.7,0-1C104.2,217.7,104.2,218,104.2,218.3z"/>
		<path fill="#121518" d="M144.3,554.1c2.7-3.1,2.7-3.1,6.3-0.2c0.2-0.8,0.4-1.4,0.6-2c0.2-0.5,0.5-1,1-2c1.3,1.5,2.2,2.6,3.3,3.9
			c1-0.7,1.9-1.5,2.9-2.2c0.4,0.3,0.9,0.6,1.3,0.9c-1.8,3-3.7,6-5.7,9.4c-0.6-1.3-1.1-2.2-1.6-3.2c-0.1,0.4-0.3,0.8-0.4,1.2
			c-1.1-0.3-2.5-0.2-3.3-0.9C147.1,557.6,145.8,555.8,144.3,554.1L144.3,554.1z"/>
		<path fill="#181C20" d="M157.7,577.2c-5.7-5.2-5.8-7.8-1-12.4C157,569,157.3,572.7,157.7,577.2z"/>
		<path fill="#181C20" d="M144.4,569.4c2.9-0.3,3.3,1,1.7,4.5c-1.9-2.1-3.7-3.7-4.7-5.6c-0.4-0.7,0.9-2.4,2.4-3.3
			c0.1,1.4,0.3,2.8,0.4,4.2C144.2,569.2,144.4,569.4,144.4,569.4z"/>
		<path fill="#121518" d="M151.3,562.9l0.1,0.1L151.3,562.9z"/>
		<path fill="#121518" d="M151.5,563.1c0,0-0.1-0.1-0.1-0.1C151.3,562.9,151.5,563.1,151.5,563.1z"/>
		<path fill="#2B3137" d="M144.4,569.4c0,0-0.2-0.2-0.2-0.2C144.2,569.2,144.4,569.4,144.4,569.4z"/>
	</g>
</g>
</svg>
